<?xml version="1.0" standalone="no"?>
<!DOCTYPE svg PUBLIC "-//W3C//DTD SVG 20010904//EN"
 "http://www.w3.org/TR/2001/REC-SVG-20010904/DTD/svg10.dtd">
<svg version="1.0" xmlns="http://www.w3.org/2000/svg"
 width="844.000000pt" height="981.000000pt" viewBox="0 0 844.000000 981.000000"
 preserveAspectRatio="xMidYMid meet">

<g transform="translate(0.000000,981.000000) scale(0.100000,-0.100000)"
fill="#000000" stroke="none">
<path d="M3881 9784 c-189 -51 -337 -211 -371 -404 -13 -72 -7 -167 15 -229
l14 -41 -54 0 c-217 0 -440 -120 -561 -302 -72 -107 -106 -217 -112 -359 -13
-306 122 -550 373 -674 147 -73 106 -70 1020 -70 915 0 867 -3 1024 72 156 75
277 212 339 385 35 98 43 306 17 423 -62 280 -312 497 -603 521 l-80 7 14 39
c21 61 27 156 14 228 -35 195 -183 355 -375 405 -83 21 -594 21 -674 -1z"/>
<path d="M269 9096 c-99 -26 -190 -103 -233 -195 l-21 -46 0 -4300 0 -4300 22
-47 c32 -71 103 -141 176 -174 l62 -29 3925 -3 c3539 -2 3930 -1 3978 14 99
28 183 100 226 193 l21 46 0 4300 0 4300 -29 58 c-36 71 -99 130 -174 165
l-57 27 -976 3 -977 2 38 -74 c47 -95 65 -177 64 -291 -1 -98 -32 -208 -80
-291 l-26 -44 766 0 766 0 -2 -3857 -3 -3858 -3515 0 -3515 0 -3 3858 -2 3857
759 0 758 0 -38 78 c-91 184 -88 385 7 560 l34 62 -953 -1 c-721 0 -963 -3
-998 -13z"/>
<path d="M5705 5787 c-105 -35 -118 -47 -1075 -1003 l-945 -944 -380 381
c-209 210 -406 401 -439 425 -172 129 -420 107 -564 -51 -93 -102 -132 -225
-112 -355 22 -140 14 -130 655 -770 368 -368 603 -595 632 -612 27 -15 81 -35
122 -44 61 -14 85 -15 145 -5 152 25 78 -43 1317 1198 1231 1233 1165 1161
1188 1304 13 79 0 172 -34 247 -34 75 -124 166 -204 205 -58 28 -75 32 -165
34 -64 2 -116 -2 -141 -10z"/>
</g>
</svg>
