<?xml version="1.0" standalone="no"?>
<!DOCTYPE svg PUBLIC "-//W3C//DTD SVG 20010904//EN"
 "http://www.w3.org/TR/2001/REC-SVG-20010904/DTD/svg10.dtd">
<svg version="1.0" xmlns="http://www.w3.org/2000/svg"
 width="238.000000pt" height="212.000000pt" viewBox="0 0 238.000000 212.000000"
 preserveAspectRatio="xMidYMid meet">

<g transform="translate(0.000000,212.000000) scale(0.100000,-0.100000)"
fill="#000000" stroke="none">
<path d="M1083 1873 c-57 -20 -138 -95 -171 -157 -21 -42 -26 -65 -26 -131 -1
-104 26 -166 100 -234 70 -64 131 -85 228 -79 191 13 323 182 286 365 -15 71
-31 103 -78 155 -56 62 -140 98 -227 97 -38 0 -89 -7 -112 -16z"/>
<path d="M637 1719 c-131 -31 -210 -131 -209 -266 1 -84 37 -162 95 -204 22
-16 45 -29 51 -29 6 1 48 35 94 78 l83 77 -21 79 c-23 89 -25 129 -10 206 14
71 2 79 -83 59z"/>
<path d="M1666 1721 c-4 -5 -2 -39 4 -75 11 -71 1 -171 -24 -231 -14 -32 -14
-32 61 -113 51 -56 82 -82 97 -82 12 0 41 16 65 36 141 121 113 359 -52 438
-59 28 -141 43 -151 27z"/>
<path d="M833 1221 c-99 -78 -176 -195 -207 -317 -21 -82 -20 -116 5 -148 l20
-26 540 0 c526 0 539 0 559 20 24 24 25 62 5 149 -26 108 -71 188 -156 272
-97 98 -112 102 -213 54 -143 -68 -244 -68 -383 0 -39 19 -83 35 -96 35 -14 0
-47 -17 -74 -39z"/>
<path d="M379 1146 c-88 -67 -159 -187 -181 -304 -10 -52 -9 -64 6 -86 16 -25
19 -26 126 -26 l110 0 0 63 c0 78 30 200 70 286 17 35 29 65 28 66 -43 29 -58
35 -84 35 -20 0 -47 -12 -75 -34z"/>
<path d="M1873 1160 l-32 -19 29 -63 c40 -85 70 -208 70 -285 l0 -63 108 0
c96 0 111 2 127 20 14 16 16 29 11 71 -17 124 -85 246 -179 320 -55 44 -86 49
-134 19z"/>
<path d="M124 541 c-101 -46 -131 -168 -63 -255 46 -58 -15 -55 1127 -56 1150
-2 1083 -5 1131 56 72 92 27 232 -84 263 -28 8 -348 11 -1055 11 -967 0 -1017
-1 -1056 -19z"/>
</g>
</svg>
